<svg xmlns="http://www.w3.org/2000/svg" xmlns:xlink="http://www.w3.org/1999/xlink" version="1.1" width="33.48637491121876" height="31.940585192590827" viewBox="6.33271119169897 6.304305048510494 33.48637491121876 31.940585192590827">
  <!-- Exported by Scratch - http://scratch.mit.edu/ -->
  <g id="ID0.7652113558724523">
    <g id="svg_273">
      <path id="svg_274" fill="#BBDA8A" d="M 18.0783 7.1898 C 18.1963 7.633 18.6329 9.8765 20.14 12.3323 C 20.5805 13.05 21.1132 13.7867 21.7557 14.5009 C 19.4335 14.7338 17.3919 15.6997 15.9507 17.0969 C 13.7913 16.1978 8.9208 14.6325 6.3571 17.4302 C 6.3571 17.4302 6.0637 18.5075 8.2274 18.397 C 10.3914 18.2864 8.9465 19.3831 10.4442 19.5427 C 11.5373 19.6592 13.0356 18.6296 14.5401 18.9427 C 13.9702 19.9968 13.6829 21.1722 13.7569 22.3952 C 13.8064 23.2216 14.0172 24.0064 14.3619 24.7303 C 12.9914 24.8721 11.6224 24.0627 10.6254 24.2024 C 9.134 24.4117 10.6142 25.4596 8.4481 25.4213 C 6.2816 25.3828 6.6109 26.4498 6.6109 26.4498 C 9.0867 28.9768 13.4395 27.6475 15.7424 26.6693 C 17.4679 28.4015 20.1409 29.4323 23.0756 29.2556 C 23.1212 29.2527 23.1665 29.2493 23.2115 29.2458 C 21.554 31.5144 20.1975 34.6197 21.3356 38.0177 C 21.3356 38.0177 21.3774 38.5802 22.2594 37.8904 C 22.6239 37.6057 24.5479 36.3206 26.1352 33.9156 C 27.2088 32.2887 28.1277 30.149 28.3054 27.4602 C 29.7446 26.4357 30.7945 25.0487 31.2552 23.488 C 31.8123 23.3573 32.493 23.4567 33.211 24.1567 C 33.9782 25.6893 35.5727 26.5814 37.1465 26.2251 C 39.0363 25.7969 40.1789 23.7312 39.6983 21.6113 C 39.2181 19.4907 37.2971 18.1193 35.4073 18.5473 C 34.5979 18.7307 33.9265 19.2151 33.4601 19.8747 C 32.9057 20.1498 32.09 20.3758 31.2675 19.9606 C 30.6423 17.8035 28.8824 16.0557 26.5633 15.1413 C 25.609 12.4083 23.1614 7.1408 18.2859 6.3332 C 18.286 6.3334 17.7924 6.1164 18.0783 7.1898 Z " stroke-width="0.022069033533211654"/>
      <g id="svg_275">
        <path id="svg_276" fill="#01604A" d="M 13.7569 22.3954 C 14.0027 26.4796 18.1749 29.5511 23.0758 29.2558 C 27.9765 28.9607 31.75 25.4106 31.5041 21.3267 C 31.2583 17.2428 27.0859 14.1711 22.1852 14.4661 C 17.2844 14.7615 13.5105 18.3117 13.7569 22.3954 Z M 15.992 25.5882 C 15.1526 24.3168 14.4352 22.7589 16.9914 22.6063 C 16.9914 22.6063 18.8141 22.6038 19.0298 23.5686 C 19.2454 24.5333 16.832 26.8599 15.992 25.5882 Z M 20.9265 28.5054 C 19.4114 28.3424 17.7538 27.9021 19.2653 25.835 C 19.2653 25.835 20.425 24.4292 21.3059 24.8776 C 22.1869 25.3261 22.4412 28.6686 20.9265 28.5054 Z M 26.9965 27.4759 C 25.7364 28.3322 24.1879 29.0697 24.0018 26.5157 C 24.0018 26.5157 23.9755 24.6929 24.9374 24.4649 C 25.8991 24.2365 28.257 26.6196 26.9965 27.4759 Z M 29.995 21.4329 C 30.1926 22.9438 30.1543 24.6581 27.79 23.6752 C 27.79 23.6752 26.1504 22.8782 26.3796 21.9166 C 26.6087 20.9551 29.7973 19.9218 29.995 21.4329 Z M 24.7776 22.9977 C 23.4822 24.8498 19.6806 24.2563 19.8384 22.5894 C 19.9965 20.9226 20.5293 19.083 23.4403 20.6071 C 23.4402 20.607 25.9978 21.2534 24.7776 22.9977 Z M 26.4158 16.4616 C 27.8181 17.0576 29.2762 17.9602 27.2296 19.4993 C 27.2296 19.4993 25.7113 20.5079 24.9991 19.8229 C 24.2865 19.1376 25.0134 15.8652 26.4158 16.4616 Z M 21.0193 15.7435 C 22.5253 15.5127 24.2405 15.5136 23.3093 17.899 C 23.3093 17.899 22.5488 19.5554 21.5824 19.3475 C 20.616 19.1398 19.5129 15.9742 21.0193 15.7435 Z M 18.6881 18.5127 C 18.6881 18.5127 19.426 20.1796 18.6305 20.7661 C 17.8349 21.3528 14.7325 20.0833 15.5566 18.802 C 16.381 17.5202 17.517 16.2358 18.6881 18.5127 Z " stroke-width="0.022069033533211654"/>
        <path id="svg_277" fill="#01604A" d="M 36.8373 22.286 C 37.3157 22.3006 37.7161 22.0463 37.7306 21.7176 C 37.7447 21.3902 37.3692 21.1118 36.891 21.0967 C 36.4122 21.0827 36.0125 21.3365 35.9977 21.6652 C 35.9827 21.9932 36.3594 22.2711 36.8373 22.286 Z " stroke-width="0.022069033533211654"/>
        <path id="svg_278" fill="#01604A" d="M 36.9737 24.1439 C 37.4254 24.0467 37.7381 23.7129 37.671 23.3991 C 37.6031 23.0852 37.1814 22.9097 36.7293 23.0073 C 36.2759 23.1047 35.9641 23.4386 36.0315 23.7519 C 36.0993 24.0658 36.5205 24.2416 36.9737 24.1439 Z " stroke-width="0.022069033533211654"/>
        <path id="svg_279" fill="#01604A" d="M 38.9611 22.4425 C 39.0867 22.524 39.2336 22.5179 39.289 22.4283 C 39.3443 22.3388 39.2874 22.2 39.1619 22.1183 C 39.0359 22.0368 38.8893 22.0433 38.8337 22.1329 C 38.7785 22.2223 38.8359 22.361 38.9611 22.4425 Z " stroke-width="0.022069033533211654"/>
        <path id="svg_280" fill="#01604A" d="M 38.9874 23.3027 C 39.1627 23.2758 39.2907 23.1639 39.2733 23.0537 C 39.2559 22.9431 39.0996 22.8755 38.9244 22.9029 C 38.7493 22.9296 38.6213 23.0412 38.6386 23.1519 C 38.6565 23.2621 38.8122 23.3299 38.9874 23.3027 Z " stroke-width="0.022069033533211654"/>
      </g>
    </g>
  </g>
</svg>